<?xml version="1.0" encoding="UTF-8" standalone="no"?>
<!DOCTYPE svg PUBLIC "-//W3C//DTD SVG 1.1//EN"
 "http://www.w3.org/Graphics/SVG/1.1/DTD/svg11.dtd">
<!-- Generated by graphviz version 2.36.0 (20140111.2315)
 -->
<!-- Title: controllers_diagram Pages: 1 -->
<svg width="578pt" height="641pt"
 viewBox="0.00 0.00 578.00 641.00" xmlns="http://www.w3.org/2000/svg" xmlns:xlink="http://www.w3.org/1999/xlink">
<g id="graph0" class="graph" transform="scale(1 1) rotate(0) translate(4 637)">
<title>controllers_diagram</title>
<polygon fill="none" stroke="none" points="-4,4 -4,-637 574,-637 574,4 -4,4"/>
<!-- _diagram_info -->
<g id="node1" class="node"><title>_diagram_info</title>
<text text-anchor="start" x="360" y="-415.6" font-family="Times,serif" font-size="13.00">Controllers diagram</text>
<text text-anchor="start" x="360" y="-401.6" font-family="Times,serif" font-size="13.00">Date: Apr 04 2016 &#45; 02:19</text>
<text text-anchor="start" x="360" y="-387.6" font-family="Times,serif" font-size="13.00">Migration version: 20160202085510</text>
<text text-anchor="start" x="360" y="-373.6" font-family="Times,serif" font-size="13.00">Generated by RailRoady 1.4.2</text>
<text text-anchor="start" x="360" y="-359.6" font-family="Times,serif" font-size="13.00">http://railroady.prestonlee.com</text>
</g>
<!-- PostsController -->
<g id="node2" class="node"><title>PostsController</title>
<path fill="none" stroke="black" d="M76,-416.5C76,-416.5 153,-416.5 153,-416.5 159,-416.5 165,-422.5 165,-428.5 165,-428.5 165,-572.5 165,-572.5 165,-578.5 159,-584.5 153,-584.5 153,-584.5 76,-584.5 76,-584.5 70,-584.5 64,-578.5 64,-572.5 64,-572.5 64,-428.5 64,-428.5 64,-422.5 70,-416.5 76,-416.5"/>
<text text-anchor="middle" x="114.5" y="-569.3" font-family="Times,serif" font-size="14.00">PostsController</text>
<polyline fill="none" stroke="black" points="64,-561.5 165,-561.5 "/>
<text text-anchor="start" x="72" y="-546.3" font-family="Times,serif" font-size="14.00">create</text>
<text text-anchor="start" x="72" y="-531.3" font-family="Times,serif" font-size="14.00">destroy</text>
<text text-anchor="start" x="72" y="-516.3" font-family="Times,serif" font-size="14.00">index</text>
<text text-anchor="start" x="72" y="-501.3" font-family="Times,serif" font-size="14.00">show</text>
<text text-anchor="start" x="72" y="-486.3" font-family="Times,serif" font-size="14.00">update</text>
<polyline fill="none" stroke="black" points="64,-478.5 165,-478.5 "/>
<polyline fill="none" stroke="black" points="64,-454.5 165,-454.5 "/>
<text text-anchor="start" x="72" y="-439.3" font-family="Times,serif" font-size="14.00">post_params</text>
<text text-anchor="start" x="72" y="-424.3" font-family="Times,serif" font-size="14.00">set_post</text>
</g>
<!-- MusiciansController -->
<g id="node3" class="node"><title>MusiciansController</title>
<path fill="none" stroke="black" d="M204,-352.5C204,-352.5 308,-352.5 308,-352.5 314,-352.5 320,-358.5 320,-364.5 320,-364.5 320,-508.5 320,-508.5 320,-514.5 314,-520.5 308,-520.5 308,-520.5 204,-520.5 204,-520.5 198,-520.5 192,-514.5 192,-508.5 192,-508.5 192,-364.5 192,-364.5 192,-358.5 198,-352.5 204,-352.5"/>
<text text-anchor="middle" x="256" y="-505.3" font-family="Times,serif" font-size="14.00">MusiciansController</text>
<polyline fill="none" stroke="black" points="192,-497.5 320,-497.5 "/>
<text text-anchor="start" x="200" y="-482.3" font-family="Times,serif" font-size="14.00">create</text>
<text text-anchor="start" x="200" y="-467.3" font-family="Times,serif" font-size="14.00">destroy</text>
<text text-anchor="start" x="200" y="-452.3" font-family="Times,serif" font-size="14.00">index</text>
<text text-anchor="start" x="200" y="-437.3" font-family="Times,serif" font-size="14.00">show</text>
<text text-anchor="start" x="200" y="-422.3" font-family="Times,serif" font-size="14.00">update</text>
<polyline fill="none" stroke="black" points="192,-414.5 320,-414.5 "/>
<polyline fill="none" stroke="black" points="192,-390.5 320,-390.5 "/>
<text text-anchor="start" x="200" y="-375.3" font-family="Times,serif" font-size="14.00">musician_params</text>
<text text-anchor="start" x="200" y="-360.3" font-family="Times,serif" font-size="14.00">set_musician</text>
</g>
<!-- PerformancesController -->
<g id="node4" class="node"><title>PerformancesController</title>
<path fill="none" stroke="black" d="M172,-144.5C172,-144.5 295,-144.5 295,-144.5 301,-144.5 307,-150.5 307,-156.5 307,-156.5 307,-300.5 307,-300.5 307,-306.5 301,-312.5 295,-312.5 295,-312.5 172,-312.5 172,-312.5 166,-312.5 160,-306.5 160,-300.5 160,-300.5 160,-156.5 160,-156.5 160,-150.5 166,-144.5 172,-144.5"/>
<text text-anchor="middle" x="233.5" y="-297.3" font-family="Times,serif" font-size="14.00">PerformancesController</text>
<polyline fill="none" stroke="black" points="160,-289.5 307,-289.5 "/>
<text text-anchor="start" x="168" y="-274.3" font-family="Times,serif" font-size="14.00">create</text>
<text text-anchor="start" x="168" y="-259.3" font-family="Times,serif" font-size="14.00">destroy</text>
<text text-anchor="start" x="168" y="-244.3" font-family="Times,serif" font-size="14.00">index</text>
<text text-anchor="start" x="168" y="-229.3" font-family="Times,serif" font-size="14.00">show</text>
<text text-anchor="start" x="168" y="-214.3" font-family="Times,serif" font-size="14.00">update</text>
<polyline fill="none" stroke="black" points="160,-206.5 307,-206.5 "/>
<polyline fill="none" stroke="black" points="160,-182.5 307,-182.5 "/>
<text text-anchor="start" x="168" y="-167.3" font-family="Times,serif" font-size="14.00">performance_params</text>
<text text-anchor="start" x="168" y="-152.3" font-family="Times,serif" font-size="14.00">set_performance</text>
</g>
<!-- InstrumentsController -->
<g id="node5" class="node"><title>InstrumentsController</title>
<path fill="none" stroke="black" d="M348,-144.5C348,-144.5 461,-144.5 461,-144.5 467,-144.5 473,-150.5 473,-156.5 473,-156.5 473,-300.5 473,-300.5 473,-306.5 467,-312.5 461,-312.5 461,-312.5 348,-312.5 348,-312.5 342,-312.5 336,-306.5 336,-300.5 336,-300.5 336,-156.5 336,-156.5 336,-150.5 342,-144.5 348,-144.5"/>
<text text-anchor="middle" x="404.5" y="-297.3" font-family="Times,serif" font-size="14.00">InstrumentsController</text>
<polyline fill="none" stroke="black" points="336,-289.5 473,-289.5 "/>
<text text-anchor="start" x="344" y="-274.3" font-family="Times,serif" font-size="14.00">create</text>
<text text-anchor="start" x="344" y="-259.3" font-family="Times,serif" font-size="14.00">destroy</text>
<text text-anchor="start" x="344" y="-244.3" font-family="Times,serif" font-size="14.00">index</text>
<text text-anchor="start" x="344" y="-229.3" font-family="Times,serif" font-size="14.00">show</text>
<text text-anchor="start" x="344" y="-214.3" font-family="Times,serif" font-size="14.00">update</text>
<polyline fill="none" stroke="black" points="336,-206.5 473,-206.5 "/>
<polyline fill="none" stroke="black" points="336,-182.5 473,-182.5 "/>
<text text-anchor="start" x="344" y="-167.3" font-family="Times,serif" font-size="14.00">instrument_params</text>
<text text-anchor="start" x="344" y="-152.3" font-family="Times,serif" font-size="14.00">set_instrument</text>
</g>
<!-- ApplicationController -->
<g id="node6" class="node"><title>ApplicationController</title>
<path fill="none" stroke="black" d="M252,-16.5C252,-16.5 364,-16.5 364,-16.5 370,-16.5 376,-22.5 376,-28.5 376,-28.5 376,-99.5 376,-99.5 376,-105.5 370,-111.5 364,-111.5 364,-111.5 252,-111.5 252,-111.5 246,-111.5 240,-105.5 240,-99.5 240,-99.5 240,-28.5 240,-28.5 240,-22.5 246,-16.5 252,-16.5"/>
<text text-anchor="middle" x="308" y="-96.3" font-family="Times,serif" font-size="14.00">ApplicationController</text>
<polyline fill="none" stroke="black" points="240,-88.5 376,-88.5 "/>
<polyline fill="none" stroke="black" points="240,-64.5 376,-64.5 "/>
<polyline fill="none" stroke="black" points="240,-40.5 376,-40.5 "/>
</g>
<!-- WallController -->
<g id="node7" class="node"><title>WallController</title>
<path fill="none" stroke="black" d="M428,-16.5C428,-16.5 503,-16.5 503,-16.5 509,-16.5 515,-22.5 515,-28.5 515,-28.5 515,-99.5 515,-99.5 515,-105.5 509,-111.5 503,-111.5 503,-111.5 428,-111.5 428,-111.5 422,-111.5 416,-105.5 416,-99.5 416,-99.5 416,-28.5 416,-28.5 416,-22.5 422,-16.5 428,-16.5"/>
<text text-anchor="middle" x="465.5" y="-96.3" font-family="Times,serif" font-size="14.00">WallController</text>
<polyline fill="none" stroke="black" points="416,-88.5 515,-88.5 "/>
<polyline fill="none" stroke="black" points="416,-64.5 515,-64.5 "/>
<polyline fill="none" stroke="black" points="416,-40.5 515,-40.5 "/>
</g>
<!-- UsersController -->
<g id="node8" class="node"><title>UsersController</title>
<path fill="none" stroke="black" d="M44,-208.5C44,-208.5 123,-208.5 123,-208.5 129,-208.5 135,-214.5 135,-220.5 135,-220.5 135,-364.5 135,-364.5 135,-370.5 129,-376.5 123,-376.5 123,-376.5 44,-376.5 44,-376.5 38,-376.5 32,-370.5 32,-364.5 32,-364.5 32,-220.5 32,-220.5 32,-214.5 38,-208.5 44,-208.5"/>
<text text-anchor="middle" x="83.5" y="-361.3" font-family="Times,serif" font-size="14.00">UsersController</text>
<polyline fill="none" stroke="black" points="32,-353.5 135,-353.5 "/>
<text text-anchor="start" x="40" y="-338.3" font-family="Times,serif" font-size="14.00">create</text>
<text text-anchor="start" x="40" y="-323.3" font-family="Times,serif" font-size="14.00">destroy</text>
<text text-anchor="start" x="40" y="-308.3" font-family="Times,serif" font-size="14.00">index</text>
<text text-anchor="start" x="40" y="-293.3" font-family="Times,serif" font-size="14.00">show</text>
<text text-anchor="start" x="40" y="-278.3" font-family="Times,serif" font-size="14.00">update</text>
<polyline fill="none" stroke="black" points="32,-270.5 135,-270.5 "/>
<polyline fill="none" stroke="black" points="32,-246.5 135,-246.5 "/>
<text text-anchor="start" x="40" y="-231.3" font-family="Times,serif" font-size="14.00">set_user</text>
<text text-anchor="start" x="40" y="-216.3" font-family="Times,serif" font-size="14.00">user_params</text>
</g>
<!-- JobsController -->
<g id="node9" class="node"><title>JobsController</title>
<path fill="none" stroke="black" d="M12,-0.5C12,-0.5 84,-0.5 84,-0.5 90,-0.5 96,-6.5 96,-12.5 96,-12.5 96,-156.5 96,-156.5 96,-162.5 90,-168.5 84,-168.5 84,-168.5 12,-168.5 12,-168.5 6,-168.5 0,-162.5 0,-156.5 0,-156.5 0,-12.5 0,-12.5 0,-6.5 6,-0.5 12,-0.5"/>
<text text-anchor="middle" x="48" y="-153.3" font-family="Times,serif" font-size="14.00">JobsController</text>
<polyline fill="none" stroke="black" points="0,-145.5 96,-145.5 "/>
<text text-anchor="start" x="8" y="-130.3" font-family="Times,serif" font-size="14.00">create</text>
<text text-anchor="start" x="8" y="-115.3" font-family="Times,serif" font-size="14.00">destroy</text>
<text text-anchor="start" x="8" y="-100.3" font-family="Times,serif" font-size="14.00">index</text>
<text text-anchor="start" x="8" y="-85.3" font-family="Times,serif" font-size="14.00">show</text>
<text text-anchor="start" x="8" y="-70.3" font-family="Times,serif" font-size="14.00">update</text>
<polyline fill="none" stroke="black" points="0,-62.5 96,-62.5 "/>
<polyline fill="none" stroke="black" points="0,-38.5 96,-38.5 "/>
<text text-anchor="start" x="8" y="-23.3" font-family="Times,serif" font-size="14.00">job_params</text>
<text text-anchor="start" x="8" y="-8.3" font-family="Times,serif" font-size="14.00">set_job</text>
</g>
<!-- BandsController -->
<g id="node10" class="node"><title>BandsController</title>
<path fill="none" stroke="black" d="M476,-464.5C476,-464.5 558,-464.5 558,-464.5 564,-464.5 570,-470.5 570,-476.5 570,-476.5 570,-620.5 570,-620.5 570,-626.5 564,-632.5 558,-632.5 558,-632.5 476,-632.5 476,-632.5 470,-632.5 464,-626.5 464,-620.5 464,-620.5 464,-476.5 464,-476.5 464,-470.5 470,-464.5 476,-464.5"/>
<text text-anchor="middle" x="517" y="-617.3" font-family="Times,serif" font-size="14.00">BandsController</text>
<polyline fill="none" stroke="black" points="464,-609.5 570,-609.5 "/>
<text text-anchor="start" x="472" y="-594.3" font-family="Times,serif" font-size="14.00">create</text>
<text text-anchor="start" x="472" y="-579.3" font-family="Times,serif" font-size="14.00">destroy</text>
<text text-anchor="start" x="472" y="-564.3" font-family="Times,serif" font-size="14.00">index</text>
<text text-anchor="start" x="472" y="-549.3" font-family="Times,serif" font-size="14.00">show</text>
<text text-anchor="start" x="472" y="-534.3" font-family="Times,serif" font-size="14.00">update</text>
<polyline fill="none" stroke="black" points="464,-526.5 570,-526.5 "/>
<polyline fill="none" stroke="black" points="464,-502.5 570,-502.5 "/>
<text text-anchor="start" x="472" y="-487.3" font-family="Times,serif" font-size="14.00">band_params</text>
<text text-anchor="start" x="472" y="-472.3" font-family="Times,serif" font-size="14.00">set_band</text>
</g>
</g>
</svg>
