<?xml version="1.0" encoding="UTF-8" standalone="no"?>
<!DOCTYPE svg PUBLIC "-//W3C//DTD SVG 1.1//EN"
 "http://www.w3.org/Graphics/SVG/1.1/DTD/svg11.dtd">
<!-- Generated by graphviz version 2.36.0 (20140111.2315)
 -->
<!-- Title: models_diagram Pages: 1 -->
<svg width="561pt" height="626pt"
 viewBox="0.00 0.00 561.00 626.00" xmlns="http://www.w3.org/2000/svg" xmlns:xlink="http://www.w3.org/1999/xlink">
<g id="graph0" class="graph" transform="scale(1 1) rotate(0) translate(4 622)">
<title>models_diagram</title>
<polygon fill="none" stroke="none" points="-4,4 -4,-622 557,-622 557,4 -4,4"/>
<!-- _diagram_info -->
<g id="node1" class="node"><title>_diagram_info</title>
<text text-anchor="start" x="8" y="-536.6" font-family="Times,serif" font-size="13.00">Models diagram</text>
<text text-anchor="start" x="8" y="-522.6" font-family="Times,serif" font-size="13.00">Date: Apr 04 2016 &#45; 02:19</text>
<text text-anchor="start" x="8" y="-508.6" font-family="Times,serif" font-size="13.00">Migration version: 20160202085510</text>
<text text-anchor="start" x="8" y="-494.6" font-family="Times,serif" font-size="13.00">Generated by RailRoady 1.4.2</text>
<text text-anchor="start" x="8" y="-480.6" font-family="Times,serif" font-size="13.00">http://railroady.prestonlee.com</text>
</g>
<!-- Post -->
<g id="node2" class="node"><title>Post</title>
<path fill="none" stroke="black" d="M171,-0.5C171,-0.5 287,-0.5 287,-0.5 293,-0.5 299,-6.5 299,-12.5 299,-12.5 299,-169.5 299,-169.5 299,-175.5 293,-181.5 287,-181.5 287,-181.5 171,-181.5 171,-181.5 165,-181.5 159,-175.5 159,-169.5 159,-169.5 159,-12.5 159,-12.5 159,-6.5 165,-0.5 171,-0.5"/>
<text text-anchor="middle" x="229" y="-166.3" font-family="Times,serif" font-size="14.00">Post</text>
<polyline fill="none" stroke="black" points="159,-158.5 299,-158.5 "/>
<text text-anchor="start" x="167" y="-143.3" font-family="Times,serif" font-size="14.00">id :INTEGER</text>
<text text-anchor="start" x="167" y="-128.3" font-family="Times,serif" font-size="14.00">title :text</text>
<text text-anchor="start" x="167" y="-113.3" font-family="Times,serif" font-size="14.00">description :text</text>
<text text-anchor="start" x="167" y="-98.3" font-family="Times,serif" font-size="14.00">start_date :date</text>
<text text-anchor="start" x="167" y="-83.3" font-family="Times,serif" font-size="14.00">end_date :date</text>
<text text-anchor="start" x="167" y="-68.3" font-family="Times,serif" font-size="14.00">is_satisfied :boolean</text>
<text text-anchor="start" x="167" y="-53.3" font-family="Times,serif" font-size="14.00">postable_type :varchar</text>
<text text-anchor="start" x="167" y="-38.3" font-family="Times,serif" font-size="14.00">postable_id :integer</text>
<text text-anchor="start" x="167" y="-23.3" font-family="Times,serif" font-size="14.00">created_at :datetime</text>
<text text-anchor="start" x="167" y="-8.3" font-family="Times,serif" font-size="14.00">updated_at :datetime</text>
</g>
<!-- User -->
<g id="node3" class="node"><title>User</title>
<path fill="none" stroke="black" d="M99,-226C99,-226 215,-226 215,-226 221,-226 227,-232 227,-238 227,-238 227,-350 227,-350 227,-356 221,-362 215,-362 215,-362 99,-362 99,-362 93,-362 87,-356 87,-350 87,-350 87,-238 87,-238 87,-232 93,-226 99,-226"/>
<text text-anchor="middle" x="157" y="-346.8" font-family="Times,serif" font-size="14.00">User</text>
<polyline fill="none" stroke="black" points="87,-339 227,-339 "/>
<text text-anchor="start" x="95" y="-323.8" font-family="Times,serif" font-size="14.00">id :INTEGER</text>
<text text-anchor="start" x="95" y="-308.8" font-family="Times,serif" font-size="14.00">name :varchar</text>
<text text-anchor="start" x="95" y="-293.8" font-family="Times,serif" font-size="14.00">email :varchar</text>
<text text-anchor="start" x="95" y="-278.8" font-family="Times,serif" font-size="14.00">postable_type :varchar</text>
<text text-anchor="start" x="95" y="-263.8" font-family="Times,serif" font-size="14.00">postable_id :integer</text>
<text text-anchor="start" x="95" y="-248.8" font-family="Times,serif" font-size="14.00">created_at :datetime</text>
<text text-anchor="start" x="95" y="-233.8" font-family="Times,serif" font-size="14.00">updated_at :datetime</text>
</g>
<!-- User&#45;&gt;Post -->
<g id="edge1" class="edge"><title>User&#45;&gt;Post</title>
<path fill="none" stroke="#af8b16" d="M183.839,-218.073C186.994,-209.266 190.25,-200.178 193.5,-191.105"/>
<ellipse fill="none" stroke="#af8b16" cx="182.424" cy="-222.025" rx="4.00001" ry="4.00001"/>
<polygon fill="#af8b16" stroke="#af8b16" points="193.508,-191.083 201.116,-183.186 195.194,-186.376 196.88,-181.668 196.88,-181.668 196.88,-181.668 195.194,-186.376 192.644,-180.151 193.508,-191.083 193.508,-191.083"/>
</g>
<!-- Job -->
<g id="node4" class="node"><title>Job</title>
<path fill="none" stroke="black" d="M329.5,-30.5C329.5,-30.5 436.5,-30.5 436.5,-30.5 442.5,-30.5 448.5,-36.5 448.5,-42.5 448.5,-42.5 448.5,-139.5 448.5,-139.5 448.5,-145.5 442.5,-151.5 436.5,-151.5 436.5,-151.5 329.5,-151.5 329.5,-151.5 323.5,-151.5 317.5,-145.5 317.5,-139.5 317.5,-139.5 317.5,-42.5 317.5,-42.5 317.5,-36.5 323.5,-30.5 329.5,-30.5"/>
<text text-anchor="middle" x="383" y="-136.3" font-family="Times,serif" font-size="14.00">Job</text>
<polyline fill="none" stroke="black" points="317.5,-128.5 448.5,-128.5 "/>
<text text-anchor="start" x="325.5" y="-113.3" font-family="Times,serif" font-size="14.00">id :INTEGER</text>
<text text-anchor="start" x="325.5" y="-98.3" font-family="Times,serif" font-size="14.00">description :text</text>
<text text-anchor="start" x="325.5" y="-83.3" font-family="Times,serif" font-size="14.00">start_date :date</text>
<text text-anchor="start" x="325.5" y="-68.3" font-family="Times,serif" font-size="14.00">end_date :date</text>
<text text-anchor="start" x="325.5" y="-53.3" font-family="Times,serif" font-size="14.00">created_at :datetime</text>
<text text-anchor="start" x="325.5" y="-38.3" font-family="Times,serif" font-size="14.00">updated_at :datetime</text>
</g>
<!-- Musician -->
<g id="node5" class="node"><title>Musician</title>
<path fill="none" stroke="black" d="M294.5,-218.5C294.5,-218.5 419.5,-218.5 419.5,-218.5 425.5,-218.5 431.5,-224.5 431.5,-230.5 431.5,-230.5 431.5,-357.5 431.5,-357.5 431.5,-363.5 425.5,-369.5 419.5,-369.5 419.5,-369.5 294.5,-369.5 294.5,-369.5 288.5,-369.5 282.5,-363.5 282.5,-357.5 282.5,-357.5 282.5,-230.5 282.5,-230.5 282.5,-224.5 288.5,-218.5 294.5,-218.5"/>
<text text-anchor="middle" x="357" y="-354.3" font-family="Times,serif" font-size="14.00">Musician</text>
<polyline fill="none" stroke="black" points="282.5,-346.5 431.5,-346.5 "/>
<text text-anchor="start" x="290.5" y="-331.3" font-family="Times,serif" font-size="14.00">id :INTEGER</text>
<text text-anchor="start" x="290.5" y="-316.3" font-family="Times,serif" font-size="14.00">name :varchar</text>
<text text-anchor="start" x="290.5" y="-301.3" font-family="Times,serif" font-size="14.00">description :text</text>
<text text-anchor="start" x="290.5" y="-286.3" font-family="Times,serif" font-size="14.00">contact_number :integer</text>
<text text-anchor="start" x="290.5" y="-271.3" font-family="Times,serif" font-size="14.00">postable_type :varchar</text>
<text text-anchor="start" x="290.5" y="-256.3" font-family="Times,serif" font-size="14.00">postable_id :integer</text>
<text text-anchor="start" x="290.5" y="-241.3" font-family="Times,serif" font-size="14.00">created_at :datetime</text>
<text text-anchor="start" x="290.5" y="-226.3" font-family="Times,serif" font-size="14.00">updated_at :datetime</text>
</g>
<!-- Musician&#45;&gt;Post -->
<g id="edge2" class="edge"><title>Musician&#45;&gt;Post</title>
<path fill="none" stroke="#d9edc3" d="M305.205,-211.666C300.794,-204.739 296.302,-197.685 291.818,-190.644"/>
<ellipse fill="none" stroke="#d9edc3" cx="307.371" cy="-215.067" rx="4.00002" ry="4.00002"/>
<polygon fill="#d9edc3" stroke="#d9edc3" points="291.521,-190.177 289.945,-179.325 288.835,-185.96 286.149,-181.742 286.149,-181.742 286.149,-181.742 288.835,-185.96 282.354,-184.159 291.521,-190.177 291.521,-190.177"/>
</g>
<!-- Musician&#45;&gt;Job -->
<g id="edge3" class="edge"><title>Musician&#45;&gt;Job</title>
<path fill="none" stroke="#3083a5" d="M367.688,-210.375C369.774,-194.244 371.943,-177.479 373.969,-161.814"/>
<ellipse fill="none" stroke="#3083a5" cx="367.158" cy="-214.474" rx="4.00001" ry="4.00001"/>
<polygon fill="#3083a5" stroke="#3083a5" points="373.995,-161.613 379.741,-152.273 374.637,-156.655 375.278,-151.696 375.278,-151.696 375.278,-151.696 374.637,-156.655 370.815,-151.119 373.995,-161.613 373.995,-161.613"/>
</g>
<!-- ApplicationRecord -->
<g id="node6" class="node"><title>ApplicationRecord</title>
<ellipse fill="none" stroke="black" cx="476" cy="-512" rx="77.0154" ry="18"/>
<text text-anchor="middle" x="476" y="-508.3" font-family="Times,serif" font-size="14.00">ApplicationRecord</text>
</g>
<!-- Band -->
<g id="node7" class="node"><title>Band</title>
<path fill="none" stroke="black" d="M243.5,-406.5C243.5,-406.5 368.5,-406.5 368.5,-406.5 374.5,-406.5 380.5,-412.5 380.5,-418.5 380.5,-418.5 380.5,-605.5 380.5,-605.5 380.5,-611.5 374.5,-617.5 368.5,-617.5 368.5,-617.5 243.5,-617.5 243.5,-617.5 237.5,-617.5 231.5,-611.5 231.5,-605.5 231.5,-605.5 231.5,-418.5 231.5,-418.5 231.5,-412.5 237.5,-406.5 243.5,-406.5"/>
<text text-anchor="middle" x="306" y="-602.3" font-family="Times,serif" font-size="14.00">Band</text>
<polyline fill="none" stroke="black" points="231.5,-594.5 380.5,-594.5 "/>
<text text-anchor="start" x="239.5" y="-579.3" font-family="Times,serif" font-size="14.00">id :INTEGER</text>
<text text-anchor="start" x="239.5" y="-564.3" font-family="Times,serif" font-size="14.00">name :varchar</text>
<text text-anchor="start" x="239.5" y="-549.3" font-family="Times,serif" font-size="14.00">description :text</text>
<text text-anchor="start" x="239.5" y="-534.3" font-family="Times,serif" font-size="14.00">contact_number :integer</text>
<text text-anchor="start" x="239.5" y="-519.3" font-family="Times,serif" font-size="14.00">favorite_artists :text</text>
<text text-anchor="start" x="239.5" y="-504.3" font-family="Times,serif" font-size="14.00">awards :text</text>
<text text-anchor="start" x="239.5" y="-489.3" font-family="Times,serif" font-size="14.00">songs :text</text>
<text text-anchor="start" x="239.5" y="-474.3" font-family="Times,serif" font-size="14.00">online_profiles :text</text>
<text text-anchor="start" x="239.5" y="-459.3" font-family="Times,serif" font-size="14.00">postable_type :varchar</text>
<text text-anchor="start" x="239.5" y="-444.3" font-family="Times,serif" font-size="14.00">postable_id :integer</text>
<text text-anchor="start" x="239.5" y="-429.3" font-family="Times,serif" font-size="14.00">created_at :datetime</text>
<text text-anchor="start" x="239.5" y="-414.3" font-family="Times,serif" font-size="14.00">updated_at :datetime</text>
</g>
<!-- Band&#45;&gt;Post -->
<g id="edge5" class="edge"><title>Band&#45;&gt;Post</title>
<path fill="none" stroke="#9a92cb" d="M279.781,-398.385C277.75,-388.799 275.795,-379.24 274,-370 262.572,-311.158 251.769,-244.917 243.614,-191.859"/>
<ellipse fill="none" stroke="#9a92cb" cx="280.666" cy="-402.525" rx="4.00001" ry="4.00001"/>
<polygon fill="#9a92cb" stroke="#9a92cb" points="243.583,-191.655 246.519,-181.089 242.827,-186.712 242.071,-181.77 242.071,-181.77 242.071,-181.77 242.827,-186.712 237.622,-182.45 243.583,-191.655 243.583,-191.655"/>
</g>
<!-- Band&#45;&gt;Musician -->
<g id="edge4" class="edge"><title>Band&#45;&gt;Musician</title>
<path fill="none" stroke="#3852e0" d="M332.529,-398.641C334.043,-392.23 335.552,-385.84 337.034,-379.561"/>
<ellipse fill="none" stroke="#3852e0" cx="331.598" cy="-402.587" rx="4.00001" ry="4.00001"/>
<polygon fill="#3852e0" stroke="#3852e0" points="337.041,-379.53 343.719,-370.832 338.19,-374.664 339.339,-369.798 339.339,-369.798 339.339,-369.798 338.19,-374.664 334.96,-368.763 337.041,-379.53 337.041,-379.53"/>
</g>
</g>
</svg>
