<?xml version="1.0" encoding="UTF-8" standalone="no"?>
<!DOCTYPE svg PUBLIC "-//W3C//DTD SVG 1.1//EN"
 "http://www.w3.org/Graphics/SVG/1.1/DTD/svg11.dtd">
<!-- Generated by graphviz version 2.36.0 (20140111.2315)
 -->
<!-- Title: models_diagram Pages: 1 -->
<svg width="471pt" height="230pt"
 viewBox="0.00 0.00 471.00 230.00" xmlns="http://www.w3.org/2000/svg" xmlns:xlink="http://www.w3.org/1999/xlink">
<g id="graph0" class="graph" transform="scale(1 1) rotate(0) translate(4 226)">
<title>models_diagram</title>
<polygon fill="none" stroke="none" points="-4,4 -4,-226 467,-226 467,4 -4,4"/>
<!-- _diagram_info -->
<g id="node1" class="node"><title>_diagram_info</title>
<text text-anchor="start" x="8" y="-207.6" font-family="Times,serif" font-size="13.00">Models diagram</text>
<text text-anchor="start" x="8" y="-193.6" font-family="Times,serif" font-size="13.00">Date: Apr 04 2016 &#45; 02:19</text>
<text text-anchor="start" x="8" y="-179.6" font-family="Times,serif" font-size="13.00">Migration version: 20160202085510</text>
<text text-anchor="start" x="8" y="-165.6" font-family="Times,serif" font-size="13.00">Generated by RailRoady 1.4.2</text>
<text text-anchor="start" x="8" y="-151.6" font-family="Times,serif" font-size="13.00">http://railroady.prestonlee.com</text>
</g>
<!-- Post -->
<g id="node2" class="node"><title>Post</title>
<ellipse fill="none" stroke="black" cx="225" cy="-18" rx="27" ry="18"/>
<text text-anchor="middle" x="225" y="-14.3" font-family="Times,serif" font-size="14.00">Post</text>
</g>
<!-- User -->
<g id="node3" class="node"><title>User</title>
<ellipse fill="none" stroke="black" cx="170" cy="-90" rx="26.949" ry="18"/>
<text text-anchor="middle" x="170" y="-86.3" font-family="Times,serif" font-size="14.00">User</text>
</g>
<!-- User&#45;&gt;Post -->
<g id="edge1" class="edge"><title>User&#45;&gt;Post</title>
<path fill="none" stroke="#d127bd" d="M186.964,-67.4089C193.244,-59.4166 200.387,-50.3252 206.775,-42.196"/>
<ellipse fill="none" stroke="#d127bd" cx="184.405" cy="-70.6658" rx="4.00002" ry="4.00002"/>
<polygon fill="#d127bd" stroke="#d127bd" points="206.911,-42.0225 216.628,-36.9395 210,-38.0909 213.089,-34.1593 213.089,-34.1593 213.089,-34.1593 210,-38.0909 209.551,-31.3791 206.911,-42.0225 206.911,-42.0225"/>
</g>
<!-- Job -->
<g id="node4" class="node"><title>Job</title>
<ellipse fill="none" stroke="black" cx="297" cy="-18" rx="27" ry="18"/>
<text text-anchor="middle" x="297" y="-14.3" font-family="Times,serif" font-size="14.00">Job</text>
</g>
<!-- Musician -->
<g id="node5" class="node"><title>Musician</title>
<ellipse fill="none" stroke="black" cx="297" cy="-90" rx="44.2946" ry="18"/>
<text text-anchor="middle" x="297" y="-86.3" font-family="Times,serif" font-size="14.00">Musician</text>
</g>
<!-- Musician&#45;&gt;Post -->
<g id="edge2" class="edge"><title>Musician&#45;&gt;Post</title>
<path fill="none" stroke="#60d79d" d="M274.618,-67.2396C265.852,-58.717 255.822,-48.966 247.085,-40.4716"/>
<ellipse fill="none" stroke="#60d79d" cx="277.794" cy="-70.3276" rx="4.00002" ry="4.00002"/>
<polygon fill="#60d79d" stroke="#60d79d" points="246.974,-40.3635 242.941,-30.1662 243.389,-36.8781 239.804,-33.3927 239.804,-33.3927 239.804,-33.3927 243.389,-36.8781 236.667,-36.6192 246.974,-40.3635 246.974,-40.3635"/>
</g>
<!-- Musician&#45;&gt;Job -->
<g id="edge3" class="edge"><title>Musician&#45;&gt;Job</title>
<path fill="none" stroke="#2b4f6e" d="M297,-63.6398C297,-58.0629 297,-52.1319 297,-46.4761"/>
<ellipse fill="none" stroke="#2b4f6e" cx="297" cy="-67.6966" rx="4" ry="4"/>
<polygon fill="#2b4f6e" stroke="#2b4f6e" points="297,-46.1043 301.5,-36.1043 297,-41.1043 297,-36.1043 297,-36.1043 297,-36.1043 297,-41.1043 292.5,-36.1044 297,-46.1043 297,-46.1043"/>
</g>
<!-- ApplicationRecord -->
<g id="node6" class="node"><title>ApplicationRecord</title>
<ellipse fill="none" stroke="black" cx="386" cy="-183" rx="77.0154" ry="18"/>
<text text-anchor="middle" x="386" y="-179.3" font-family="Times,serif" font-size="14.00">ApplicationRecord</text>
</g>
<!-- Band -->
<g id="node7" class="node"><title>Band</title>
<ellipse fill="none" stroke="black" cx="261" cy="-183" rx="29.3722" ry="18"/>
<text text-anchor="middle" x="261" y="-179.3" font-family="Times,serif" font-size="14.00">Band</text>
</g>
<!-- Band&#45;&gt;Post -->
<g id="edge5" class="edge"><title>Band&#45;&gt;Post</title>
<path fill="none" stroke="#892894" d="M255.164,-157.038C251.838,-142.702 247.624,-124.353 244,-108 239.414,-87.3059 234.417,-63.8595 230.699,-46.2285"/>
<ellipse fill="none" stroke="#892894" cx="256.103" cy="-161.074" rx="4.00001" ry="4.00001"/>
<polygon fill="#892894" stroke="#892894" points="230.622,-45.8648 232.968,-35.1527 229.593,-40.9719 228.564,-36.0789 228.564,-36.0789 228.564,-36.0789 229.593,-40.9719 224.16,-37.0052 230.622,-45.8648 230.622,-45.8648"/>
</g>
<!-- Band&#45;&gt;Musician -->
<g id="edge4" class="edge"><title>Band&#45;&gt;Musician</title>
<path fill="none" stroke="#612c5f" d="M270.675,-157.543C275.577,-145.152 281.536,-130.09 286.543,-117.432"/>
<ellipse fill="none" stroke="#612c5f" cx="269.074" cy="-161.59" rx="4.00001" ry="4.00001"/>
<polygon fill="#612c5f" stroke="#612c5f" points="286.638,-117.192 294.501,-109.549 288.478,-112.543 290.317,-107.893 290.317,-107.893 290.317,-107.893 288.478,-112.543 286.133,-106.238 286.638,-117.192 286.638,-117.192"/>
</g>
</g>
</svg>
